<svg width="343" height="227" viewBox="0 0 343 227" fill="none" xmlns="http://www.w3.org/2000/svg">
<g clip-path="url(#clip0_22_162)">
<path d="M123.034 130.641C134.789 110.049 157.211 94.2376 180.947 95.7607C163.439 114.721 153.229 139.237 152.125 164.972C151.735 174.899 152.34 185.98 145.721 193.412C141.603 198.037 135.309 200.277 129.12 200.747C122.931 201.217 116.743 200.103 110.637 198.994L109.156 199.447C108.592 175.767 111.28 151.232 123.034 130.641Z" fill="#F0F0F0"/>
<path d="M180.982 96.2565C163.43 104.671 148.463 118.724 139.276 135.863C137.289 139.569 135.598 143.5 134.861 147.656C134.123 151.814 134.638 155.773 136.064 159.722C137.368 163.333 139.122 166.875 139.521 170.739C139.943 174.811 138.438 178.618 135.73 181.64C132.416 185.338 127.966 187.629 123.536 189.719C118.618 192.039 113.472 194.372 109.988 198.702C109.566 199.227 108.773 198.544 109.194 198.02C115.256 190.485 125.631 189.069 132.826 182.999C136.183 180.167 138.703 176.31 138.544 171.791C138.405 167.839 136.6 164.184 135.248 160.54C133.829 156.713 133.121 152.866 133.63 148.786C134.15 144.612 135.691 140.607 137.573 136.867C141.819 128.433 147.629 120.69 154.285 113.997C161.934 106.303 170.849 99.9689 180.643 95.2687C181.249 94.978 181.585 95.9678 180.982 96.2565Z" fill="white"/>
<path d="M141.967 130.136C139.276 128.176 137.373 125.328 136.596 122.1C135.819 118.872 136.22 115.474 137.726 112.513C138.033 111.915 138.981 112.361 138.674 112.96C137.265 115.715 136.892 118.88 137.622 121.885C138.352 124.89 140.136 127.536 142.652 129.345C143.199 129.739 142.51 130.527 141.967 130.136Z" fill="white"/>
<path d="M135.161 157.978C141.904 156.997 148.027 153.521 152.311 148.244C152.735 147.72 153.528 148.403 153.104 148.926C148.637 154.409 142.257 158.014 135.238 159.019C134.569 159.115 134.496 158.073 135.161 157.978V157.978Z" fill="white"/>
<path d="M162.452 107.588C163.334 108.562 164.446 109.302 165.687 109.743C166.928 110.184 168.259 110.31 169.562 110.112C170.229 110.008 170.302 111.05 169.638 111.153C168.199 111.366 166.728 111.224 165.356 110.74C163.984 110.256 162.752 109.445 161.767 108.378C161.666 108.285 161.604 108.157 161.593 108.02C161.583 107.884 161.626 107.748 161.713 107.642C161.804 107.537 161.933 107.473 162.071 107.463C162.209 107.453 162.346 107.498 162.452 107.588Z" fill="white"/>
<path d="M228.174 160.72C227.759 160.797 227.344 160.874 226.926 160.958C221.352 162.017 215.874 163.525 210.546 165.467C210.132 165.611 209.714 165.762 209.305 165.918C196.518 170.733 184.74 177.871 174.57 186.968C170.526 190.592 166.765 194.516 163.32 198.708C158.561 204.498 153.865 211.152 147.647 214.927C147.003 215.328 146.334 215.689 145.645 216.007L109.825 201.212C109.761 201.137 109.693 201.071 109.628 200.997L108.17 200.471C108.333 200.242 108.506 200.009 108.669 199.78C108.763 199.647 108.864 199.518 108.958 199.385C109.023 199.297 109.089 199.21 109.142 199.127C109.164 199.098 109.186 199.068 109.204 199.047C109.258 198.965 109.316 198.893 109.366 198.819C110.333 197.511 111.31 196.207 112.298 194.907C112.302 194.899 112.302 194.899 112.313 194.895C119.867 185.014 128.317 175.674 137.92 167.909C138.21 167.675 138.502 167.434 138.807 167.207C143.155 163.73 147.782 160.614 152.64 157.888C155.306 156.404 158.044 155.055 160.847 153.847C168.093 150.739 175.785 148.786 183.641 148.058C199.301 146.61 215.253 150.165 227.264 159.963C227.571 160.214 227.87 160.461 228.174 160.72Z" fill="#F0F0F0"/>
<path d="M227.905 161.14C208.803 157.335 188.357 159.582 170.659 167.758C166.833 169.526 163.106 171.65 160.004 174.527C156.901 177.404 154.919 180.874 153.67 184.882C152.529 188.547 151.787 192.427 149.77 195.751C147.645 199.255 144.142 201.393 140.152 202.182C135.271 203.147 130.333 202.309 125.532 201.321C120.202 200.225 114.683 199.002 109.283 200.371C108.629 200.537 108.409 199.516 109.062 199.351C118.457 196.969 127.597 202.059 137.011 201.526C141.404 201.277 145.749 199.709 148.354 196.005C150.632 192.767 151.4 188.766 152.524 185.046C153.704 181.139 155.465 177.643 158.338 174.69C161.277 171.67 164.929 169.396 168.693 167.539C177.182 163.35 186.502 160.651 195.863 159.298C206.622 157.741 217.569 158.028 228.231 160.148C228.891 160.279 228.561 161.27 227.905 161.14V161.14Z" fill="white"/>
<path d="M176.271 164.798C175.307 161.62 175.509 158.205 176.84 155.162C178.172 152.118 180.546 149.645 183.539 148.185C184.146 147.891 184.632 148.816 184.025 149.11C181.235 150.465 179.024 152.769 177.79 155.605C176.555 158.442 176.38 161.624 177.295 164.578C177.494 165.22 176.468 165.437 176.271 164.798Z" fill="white"/>
<path d="M154.004 182.948C159.98 186.207 166.971 187.104 173.582 185.458C174.237 185.294 174.457 186.315 173.803 186.478C166.92 188.178 159.647 187.231 153.435 183.826C152.843 183.501 153.415 182.625 154.004 182.948Z" fill="white"/>
<path d="M206.259 159.077C206.375 160.384 206.814 161.642 207.539 162.737C208.263 163.833 209.25 164.733 210.41 165.355C211.005 165.672 210.433 166.548 209.841 166.232C208.563 165.539 207.475 164.544 206.672 163.335C205.869 162.126 205.375 160.74 205.234 159.297C205.209 159.162 205.237 159.023 205.312 158.908C205.386 158.793 205.502 158.71 205.636 158.677C205.772 158.648 205.913 158.674 206.03 158.749C206.147 158.824 206.229 158.942 206.259 159.077Z" fill="white"/>
<path d="M159.94 185.13C154.924 160.976 148.653 152.923 148.653 152.923L146.258 151.073L143.377 148.844L143.391 148.558L142.708 148.327L142.547 148.202L142.284 148.001L142.242 148.047L142.152 148.139L129.116 143.726L112.578 138.132L104.92 128.219C103.673 126.604 102.067 125.299 100.228 124.406C98.39 123.513 96.3689 123.057 94.3235 123.072L69.8654 123.252C66.5584 123.276 63.3801 124.532 60.9555 126.771L44.8795 141.621L19.8301 153.535L19.7879 153.493L19.5248 153.68L15.6545 155.523L15.8142 156.351L13.4187 158.072C13.4187 158.072 7.14812 165.565 2.13166 188.041C0.855527 193.76 0.227369 206.027 0.000637163 221.144C-0.0107515 221.909 0.130634 222.668 0.416569 223.378C0.702504 224.088 1.12729 224.734 1.66622 225.279C2.20515 225.824 2.84747 226.257 3.55584 226.552C4.26421 226.847 5.0245 227 5.79249 227H139.586V227H156.285C157.053 227 157.813 226.847 158.52 226.552C159.228 226.257 159.87 225.825 160.409 225.281C160.948 224.737 161.373 224.091 161.659 223.382C161.946 222.673 162.088 221.914 162.077 221.15C161.856 204.701 161.228 191.332 159.94 185.13Z" fill="#3F3D56"/>
<path d="M177.107 21.0647C171.901 21.0647 166.909 23.124 163.228 26.7894C159.548 30.4549 157.48 35.4263 157.48 40.61C157.48 45.7937 159.548 50.7651 163.228 54.4306C166.909 58.096 171.901 60.1553 177.107 60.1553H323.373C328.579 60.1553 333.571 58.096 337.251 54.4306C340.932 50.7651 343 45.7937 343 40.61C343 35.4263 340.932 30.4549 337.251 26.7894C333.571 23.124 328.579 21.0647 323.373 21.0647H177.107Z" fill="#E5E5E5"/>
<path d="M177.106 25.0203C172.954 25.0203 168.973 26.6628 166.037 29.5864C163.101 32.5101 161.452 36.4754 161.452 40.61C161.452 44.7446 163.101 48.7099 166.037 51.6336C168.973 54.5572 172.954 56.1997 177.106 56.1997H323.373C327.525 56.1997 331.507 54.5572 334.443 51.6336C337.378 48.7099 339.028 44.7446 339.028 40.61C339.028 36.4754 337.378 32.5101 334.443 29.5864C331.507 26.6628 327.525 25.0203 323.373 25.0203H177.106Z" fill="white"/>
<path d="M85.9353 113.921C103.632 113.921 117.978 99.6352 117.978 82.0122C117.978 64.3891 103.632 50.1029 85.9353 50.1029C68.2387 50.1029 53.8928 64.3891 53.8928 82.0122C53.8928 99.6352 68.2387 113.921 85.9353 113.921Z" fill="#9E616A"/>
<path d="M77.7381 112.359C77.6012 112.059 77.4647 111.758 77.3286 111.456C77.3811 111.457 77.433 111.465 77.4855 111.466L77.7381 112.359Z" fill="#2F2E41"/>
<path d="M53.0018 51.5539C54.6224 50.2665 56.5165 49.0819 58.5885 49.1485C60.6605 49.215 62.7617 51.0786 62.3324 53.0983C66.1383 46.3878 72.196 41.2265 79.4424 38.5206C86.6888 35.8147 94.6607 35.7371 101.959 38.3012C107.109 40.1106 112.159 43.7303 113.342 49.0394C113.645 50.4022 113.711 51.8966 114.565 53.0033C115.643 54.3986 117.704 54.7142 119.401 54.2234C119.418 54.2184 119.435 54.2135 119.452 54.2084C119.739 54.1109 120.048 54.1013 120.341 54.1809C120.633 54.2605 120.894 54.4256 121.091 54.6548C121.288 54.884 121.412 55.1669 121.446 55.4667C121.48 55.7666 121.422 56.0696 121.281 56.3367L119.824 59.043C121.661 59.4507 123.57 59.4103 125.387 58.9251C125.689 58.8463 126.008 58.8624 126.301 58.9712C126.593 59.0801 126.845 59.2764 127.021 59.5332C127.197 59.7899 127.288 60.0947 127.284 60.4055C127.279 60.7163 127.177 61.0181 126.994 61.2693C122.189 67.8385 114.162 72.0805 105.97 72.0306C100.148 71.9953 94.2666 69.9971 88.6005 71.3304C86.4085 71.8462 84.3603 72.8441 82.6061 74.251C80.8519 75.6579 79.4363 77.4381 78.4631 79.4609C77.4898 81.4837 76.9837 83.6978 76.9819 85.9408C76.98 88.1838 77.4824 90.3987 78.4523 92.4231C76.7116 90.5271 73.3468 90.976 71.5662 92.835C69.7857 94.694 69.3248 97.4686 69.5042 100.031C69.7785 103.951 71.3207 107.644 72.9464 111.239C59.3159 110.812 46.4237 101.29 42.0841 88.4115C37.7264 75.479 42.2935 60.0608 53.0018 51.5539Z" fill="#2F2E41"/>
<path opacity="0.2" d="M31.5381 177.838L40.5253 226.532L45.9178 227L31.5381 177.838Z" fill="black"/>
<path opacity="0.2" d="M130.534 174.166L121.547 226.497L116.154 227L130.534 174.166Z" fill="black"/>
<path d="M60.667 35.1659C58.9439 35.8825 57.1458 35.0972 56.3918 33.2988C55.6262 31.473 56.3412 29.6195 58.092 28.8915C59.843 28.1634 61.609 28.9506 62.3869 30.8059C63.1532 32.6334 62.4459 34.4262 60.667 35.1659ZM57.3662 25.2976L55.9961 25.8673C55.6538 26.0079 55.271 26.0155 54.9234 25.8886C54.5757 25.7616 54.2886 25.5093 54.1188 25.1816L54.0511 25.0496C52.5768 22.402 52.408 19.1841 53.552 15.4905C54.6118 12.1771 55.052 9.84678 54.1667 7.73565C53.1433 5.29481 50.9578 4.53021 48.1708 5.63781C47.0899 6.08729 46.7459 6.08013 45.8953 6.92046C45.7103 7.10548 45.4897 7.25149 45.2468 7.3498C45.0039 7.4481 44.7436 7.49668 44.4814 7.49265C44.2279 7.48967 43.9777 7.4359 43.7455 7.33454C43.5134 7.23318 43.3041 7.0863 43.1302 6.90267C42.7952 6.54878 42.6075 6.08146 42.605 5.59509C42.6025 5.10873 42.7855 4.63954 43.1169 4.2823C44.5467 2.79183 46.2712 1.61267 48.1816 0.819244C54.1696 -1.67076 57.184 2.00537 58.5635 5.29516C59.9127 8.51295 59.1537 11.4985 57.9342 15.3651C56.9123 18.5781 56.9718 20.9588 58.1327 23.326C58.2165 23.5049 58.2631 23.6989 58.2698 23.8963C58.2764 24.0936 58.243 24.2903 58.1714 24.4744C58.0998 24.6586 57.9915 24.8264 57.8532 24.9679C57.7148 25.1093 57.5492 25.2215 57.3662 25.2976L57.3662 25.2976Z" fill="#2563EB"/>
<path d="M209.415 49.9318H180.313C180.221 49.9324 180.129 49.9148 180.044 49.88C179.958 49.8452 179.88 49.7939 179.815 49.729C179.749 49.6641 179.697 49.587 179.661 49.502C179.626 49.417 179.608 49.3258 179.608 49.2337C179.608 49.1416 179.626 49.0505 179.661 48.9655C179.697 48.8805 179.749 48.8033 179.815 48.7384C179.88 48.6736 179.958 48.6222 180.044 48.5874C180.129 48.5526 180.221 48.535 180.313 48.5357H209.415C209.6 48.5369 209.777 48.611 209.908 48.7418C210.038 48.8726 210.111 49.0494 210.111 49.2337C210.111 49.418 210.038 49.5949 209.908 49.7256C209.777 49.8564 209.6 49.9305 209.415 49.9318Z" fill="#2563EB"/>
<path d="M246.332 50.1644H217.23C217.138 50.165 217.046 50.1475 216.961 50.1127C216.875 50.0779 216.797 50.0265 216.732 49.9617C216.666 49.8968 216.614 49.8196 216.578 49.7346C216.543 49.6496 216.525 49.5584 216.525 49.4664C216.525 49.3743 216.543 49.2831 216.578 49.1981C216.614 49.1131 216.666 49.036 216.732 48.9711C216.797 48.9062 216.875 48.8549 216.961 48.8201C217.046 48.7853 217.138 48.7677 217.23 48.7683H246.332C246.424 48.7677 246.516 48.7853 246.602 48.8201C246.687 48.8549 246.765 48.9062 246.831 48.9711C246.896 49.036 246.948 49.1131 246.984 49.1981C247.019 49.2831 247.038 49.3743 247.038 49.4664C247.038 49.5584 247.019 49.6496 246.984 49.7346C246.948 49.8196 246.896 49.8968 246.831 49.9617C246.765 50.0265 246.687 50.0779 246.602 50.1127C246.516 50.1475 246.424 50.165 246.332 50.1644Z" fill="#2563EB"/>
<path d="M283.249 50.3971H254.148C253.963 50.3959 253.785 50.3218 253.655 50.191C253.525 50.0602 253.451 49.8834 253.451 49.6991C253.451 49.5147 253.525 49.3379 253.655 49.2071C253.785 49.0764 253.963 49.0023 254.148 49.001H283.249C283.342 49.0004 283.433 49.018 283.519 49.0528C283.605 49.0876 283.682 49.1389 283.748 49.2038C283.814 49.2687 283.866 49.3458 283.901 49.4308C283.937 49.5158 283.955 49.607 283.955 49.6991C283.955 49.7911 283.937 49.8823 283.901 49.9673C283.866 50.0523 283.814 50.1295 283.748 50.1943C283.682 50.2592 283.605 50.3105 283.519 50.3453C283.433 50.3801 283.342 50.3977 283.249 50.3971H283.249Z" fill="#2563EB"/>
<path d="M320.166 50.6298H291.065C290.88 50.6285 290.703 50.5544 290.572 50.4237C290.442 50.2929 290.369 50.1161 290.369 49.9317C290.369 49.7474 290.442 49.5706 290.572 49.4398C290.703 49.309 290.88 49.235 291.065 49.2337H320.166C320.352 49.235 320.529 49.309 320.659 49.4398C320.789 49.5706 320.863 49.7474 320.863 49.9317C320.863 50.1161 320.789 50.2929 320.659 50.4237C320.529 50.5544 320.352 50.6285 320.166 50.6298Z" fill="#2563EB"/>
<path d="M194.8 43.5075C197.787 43.5075 200.209 41.096 200.209 38.1213C200.209 35.1465 197.787 32.735 194.8 32.735C191.813 32.735 189.391 35.1465 189.391 38.1213C189.391 41.096 191.813 43.5075 194.8 43.5075Z" fill="#2563EB"/>
<path d="M231.94 43.5075C234.927 43.5075 237.349 41.096 237.349 38.1213C237.349 35.1465 234.927 32.735 231.94 32.735C228.953 32.735 226.531 35.1465 226.531 38.1213C226.531 41.096 228.953 43.5075 231.94 43.5075Z" fill="#2563EB"/>
<path d="M269.08 43.5075C272.068 43.5075 274.489 41.096 274.489 38.1213C274.489 35.1465 272.068 32.735 269.08 32.735C266.093 32.735 263.672 35.1465 263.672 38.1213C263.672 41.096 266.093 43.5075 269.08 43.5075Z" fill="#2563EB"/>
<path d="M306.221 43.5075C309.208 43.5075 311.629 41.096 311.629 38.1213C311.629 35.1465 309.208 32.735 306.221 32.735C303.233 32.735 300.812 35.1465 300.812 38.1213C300.812 41.096 303.233 43.5075 306.221 43.5075Z" fill="#2563EB"/>
</g>
<defs>
<clipPath id="clip0_22_162">
<rect width="343" height="227" fill="white"/>
</clipPath>
</defs>
</svg>
