<svg width="343" height="211" viewBox="0 0 343 211" fill="none" xmlns="http://www.w3.org/2000/svg">
<path d="M109.424 75.1988L107.249 75.8905C107.222 75.7722 107.19 75.6539 107.154 75.5356C106.872 74.6276 106.744 76.2592 106.012 75.6539C106.064 76.4367 104.938 68.3905 104.829 69.1642C104.783 69.4896 105.177 74.8802 105.102 75.1988L88.2113 75.3603C88.3068 73.7334 87.44 74.3591 86.6733 72.9233C86.2206 74.2727 86.15 73.2942 85.4334 74.5161C85.1331 75.0327 84.8123 75.5287 84.4665 76.0134C84.3004 76.2523 84.1252 76.4867 83.9455 76.7188L83.7157 76.7916L82.5781 54.4918C82.5781 47.1397 88.9484 43.5694 93.9536 48.348C96.6131 50.887 103.118 47.5629 104.617 49.9704C106.114 52.3801 106.694 55.7069 106.694 59.3841L109.424 75.1988V75.1988Z" fill="#27272A"/>
<path d="M82.7893 201.863L86.4537 201.949L88.4963 185.484L83.0886 185.356L82.7893 201.863Z" fill="#FFB7B7"/>
<path d="M95.3612 209.509C95.3612 210.128 94.9219 210.63 94.38 210.63H87.1066C87.1066 210.63 86.3908 207.752 83.4725 206.514L83.2711 210.63H79.519L79.9736 204.012C79.9736 204.012 78.9699 200.471 81.0544 198.661C83.1389 196.851 81.4505 197.103 81.4505 197.103L82.2705 193.006L87.9404 193.673L87.9821 200.103L90.7336 206.486L94.7695 208.48C95.1287 208.658 95.3612 209.062 95.3612 209.509H95.3612H95.3612Z" fill="#27272A"/>
<path d="M93.9376 199.179L97.4601 200.193L103.613 184.785L98.4151 183.289L93.9376 199.179Z" fill="#FFB7B7"/>
<path d="M104.158 209.766C104.001 210.365 103.449 210.739 102.925 210.602L95.8892 208.756C95.8892 208.756 95.927 205.79 93.4184 203.852L92.1793 207.782L88.55 206.83L90.6689 200.543C90.6689 200.543 90.5965 196.864 93.0719 195.642C95.5475 194.42 93.8504 194.235 93.8504 194.235L95.6829 190.481L100.998 192.565L99.4068 198.796L100.449 205.668L103.847 208.621C104.149 208.884 104.271 209.334 104.158 209.766L104.158 209.766L104.158 209.766Z" fill="#27272A"/>
<path d="M102.827 69.1786L91.6785 70.3163L84.6257 110.82L106.012 114.233L102.827 69.1786Z" fill="#2563EB"/>
<path d="M81.4406 76.6877L82.5781 103.083L72.5677 120.605L79.848 127.204C79.848 127.204 93.2711 100.58 93.7261 93.2988C94.1811 86.0172 91.5641 70.9733 91.5641 70.9733L81.4406 76.6877V76.6877Z" fill="#27272A"/>
<path d="M113.292 76.6877L112.154 103.083L122.165 120.605L106.694 127.659C106.694 127.659 101.461 100.58 101.006 93.2988C100.551 86.0172 103.168 70.9733 103.168 70.9733L113.292 76.6877V76.6877Z" fill="#27272A"/>
<path d="M85.9908 108.317L80.758 109L77.8004 140.629L81.8956 188.518H88.5955L93.4986 135.168L102.144 155.192L95.8185 188.518L102.144 189.163L114.885 154.51L106.012 114.233L85.9908 108.317Z" fill="#27272A"/>
<path d="M107.466 136.871C107.714 135.999 108.138 135.256 108.642 134.725L110.476 126.271L114.473 127.261L112.182 135.731C112.333 136.447 112.303 137.303 112.055 138.174C111.49 140.166 110.004 141.489 108.737 141.129C107.47 140.769 106.901 138.863 107.466 136.871V136.871Z" fill="#FFB6B6"/>
<path d="M108.019 74.9779C108.019 74.9779 115.399 74.602 115.936 79.4962C116.473 84.3905 118.192 112.265 118.192 112.265L114.208 131.08L108.525 130.29L111.037 106.341L108.019 74.9779H108.019Z" fill="#27272A"/>
<path d="M44.7728 89.5971C45.6127 89.9457 46.3042 90.4551 46.7739 91.0202L54.9848 93.8353L53.5311 97.7039L45.3585 94.4317C44.6268 94.4981 43.7779 94.3682 42.938 94.0196C41.0192 93.2233 39.8745 91.5877 40.3812 90.3665C40.8878 89.1453 42.854 88.8008 44.7727 89.5971H44.7727H44.7728Z" fill="#FFB6B6"/>
<path d="M91.6583 77.8576L91.6583 77.8576L72.9268 103.146L50.9695 97.0992L51.9241 91.3702L68.6438 94.5374L77.9715 80.1951C81.0173 74.3065 87.0205 73.1206 91.6583 77.8576V77.8576Z" fill="#27272A"/>
<path d="M96.4311 66.8744C100.968 66.8744 104.647 63.1956 104.647 58.6576C104.647 54.1195 100.968 50.4407 96.4311 50.4407C91.8939 50.4407 88.2157 54.1195 88.2157 58.6576C88.2157 63.1956 91.8939 66.8744 96.4311 66.8744Z" fill="#FFB7B7"/>
<path d="M108.514 58.3601H105.746L104.995 57.3468C104.63 57.3468 104.36 58.321 104.011 58.2467C102.945 58.0199 101.966 57.465 101.165 56.6915C101.097 56.6261 101.027 56.5633 100.954 56.5033L100.955 56.5219C101.019 57.5237 100.193 58.3601 99.1895 58.3601H93.8522C92.395 58.3601 91.3322 59.7393 91.7032 61.1487L91.2235 78.3845C91.2235 74.8665 75.6618 56.9038 86.2183 49.7132C88.6622 48.0485 90.4363 48.348 93.9536 48.348C99.3598 45.4642 106.161 48.1554 107.918 54.0261C108.311 55.3412 108.514 56.7952 108.514 58.3601Z" fill="#27272A"/>
<path d="M267.46 58.417C267.065 58.0008 266.787 53.418 266.298 53.112C266.493 53.769 266.404 58.67 266.375 59.3556C262.067 62.2937 259.145 54.7443 256.097 54.7443C250.577 54.7443 243.857 42.3101 243.857 36.7889C243.857 31.2676 250.811 28.3352 255.893 26.1788C262.626 23.3223 268.781 29.6888 269.562 35.1566C271.602 49.4393 269.921 55.6829 267.46 58.417Z" fill="#27272A"/>
<path d="M254.243 47.0379C258.78 47.0379 262.458 43.3591 262.458 38.8211C262.458 34.283 258.78 30.6042 254.243 30.6042C249.706 30.6042 246.028 34.283 246.028 38.8211C246.028 43.3591 249.706 47.0379 254.243 47.0379Z" fill="#A0616A"/>
<path d="M242.289 37.0372L246.383 37.5455L247.389 36.9429L247.501 37.6844C248.077 37.7559 248.662 37.5325 249.01 37.0679C249.288 36.6972 249.63 36.3749 250.02 36.126C249.968 36.3962 249.929 36.6684 249.902 36.9414C249.845 37.5111 250.245 38.025 250.813 38.0955L256.839 38.8436C258.285 39.0232 259.17 40.5228 258.628 41.8757C258.628 41.8757 260.092 38.7099 261.401 39.6454C264.258 41.6858 272.485 37.365 265.48 31.2031C263.259 29.25 261.462 29.3286 257.971 28.8952C252.962 25.3674 245.881 27.2001 243.415 32.8098C242.862 34.0663 242.481 35.4842 242.289 37.0372V37.0372Z" fill="#27272A"/>
<path d="M260.401 88.6364H236.415C238.426 84.1495 239.662 79.8762 237.73 76.4771L260.401 75.1626C259.268 79.7512 259.13 84.2544 260.401 88.6364Z" fill="#A0616A"/>
<path d="M257.444 48.8723L247.915 48.215L243.973 53.1445L241.974 53.508C238.977 54.0528 236.844 56.7272 236.978 59.7702L237.755 77.4452L260.53 79.1062L265.987 56.0897L259.416 53.4731L257.444 48.8723V48.8723Z" fill="#E6E6E6"/>
<path d="M261.586 193.535L257.682 193.627L255.505 176.084L261.267 175.947L261.586 193.535Z" fill="#A0616A"/>
<path d="M248.191 201.682C248.191 202.342 248.659 202.877 249.236 202.877H256.986C256.986 202.877 257.748 199.81 260.858 198.491L261.072 202.877H265.07L264.586 195.825C264.586 195.825 265.655 192.052 263.434 190.123C261.213 188.195 263.012 188.463 263.012 188.463L262.139 184.099L256.097 184.809L256.053 191.661L253.121 198.461L248.821 200.586C248.438 200.775 248.191 201.206 248.191 201.682L248.191 201.682V201.682Z" fill="#27272A"/>
<path d="M247.306 193.127L243.401 193.219L241.225 175.676L246.987 175.539L247.306 193.127Z" fill="#A0616A"/>
<path d="M233.91 201.274C233.91 201.934 234.378 202.469 234.956 202.469H242.705C242.705 202.469 243.468 199.402 246.577 198.083L246.792 202.469H250.79L250.306 195.417C250.306 195.417 251.375 191.644 249.154 189.715C246.933 187.787 248.732 188.055 248.732 188.055L247.858 183.691L241.817 184.401L241.773 191.252L238.841 198.053L234.541 200.178C234.158 200.367 233.91 200.798 233.91 201.274L233.91 201.274V201.274Z" fill="#27272A"/>
<path d="M237.329 85.3501L234.065 95.9602L232.841 139.216L241.323 179.274L247.863 178.372L249.441 123.113L253.501 178.372L262.701 178.024C262.701 178.024 270.378 98.0005 260.717 88.1527L259.844 84.4312L237.329 85.3501V85.3501Z" fill="#27272A"/>
<path d="M231.376 68.9736L217.915 78.7987L203.544 84.3919L202.545 80.9979L214.321 74.0076L228.947 62.7994L231.376 68.9736Z" fill="#A0616A"/>
<path d="M201.619 85.8175C203.561 84.8473 204.669 83.1259 204.093 81.9725C203.517 80.8191 201.475 80.6705 199.533 81.6407C197.591 82.6108 196.483 84.3323 197.059 85.4857C197.635 86.6391 199.676 86.7876 201.619 85.8175Z" fill="#A0616A"/>
<path d="M239.992 54.9576C239.992 54.9576 244.174 60.7 241.152 62.9586C238.129 65.2172 228.971 75.8156 228.971 75.8156L221.401 67.4895L239.992 54.9576V54.9576Z" fill="#E6E6E6"/>
<path d="M43.7293 0C32.3498 0 23.1249 9.22648 23.1249 20.6079C23.1249 30.1795 31.515 42.6435 39.3825 48.7799C40.0895 49.3313 40.8792 49.7153 41.7022 49.9447L42.4749 52.7268C42.6355 53.3052 43.1621 53.7055 43.7623 53.7055H43.8602C44.4865 53.7055 45.0287 53.2705 45.1645 52.659L45.7997 49.8004C46.4867 49.5564 47.144 49.2017 47.7421 48.7333C56.5463 41.8378 64.3337 30.5032 64.3337 20.6079C64.3337 9.22648 55.1088 0 43.7293 0Z" fill="#2563EB"/>
<path d="M47.1633 51.2076C44.6873 57.4119 42.696 55.9983 40.9196 51.2076V49.9586H47.1633V51.2076H47.1633Z" fill="#27272A"/>
<path d="M44.3536 50.5862L44.2132 62.3608L44.2069 62.7605L44.1788 103.664V105.563L44.1726 106.162H43.5451L43.5513 105.594V103.664L43.5826 62.7605L43.6169 59.941L43.7293 50.58L44.3536 50.5862Z" fill="#27272A"/>
<path d="M44.2413 106.162H43.6106L43.5513 105.594L43.5388 103.664L43.286 62.7605L41.9998 50.5144L42.621 50.4489L43.6169 59.941L43.9135 62.7605L44.0383 103.664L44.0414 104.267L44.1788 105.563L44.2413 106.162Z" fill="#27272A"/>
<path d="M46.0832 50.5144L44.7969 62.7605L44.4348 103.664L44.413 106.162H43.8416L44.0414 104.267L44.0446 103.664L44.1694 62.7605L44.2132 62.3608L45.4619 50.4489L46.0832 50.5144Z" fill="#27272A"/>
<path d="M306.198 54.8938C299.351 49.3335 289.293 50.3779 283.734 57.2265C279.058 62.9861 278.019 74.5857 279.756 82.1224C279.912 82.7996 280.199 83.4165 280.583 83.9567L279.689 86.0083C279.503 86.4349 279.624 86.9331 279.985 87.2263L280.044 87.2742C280.421 87.5802 280.96 87.5833 281.34 87.2818L283.119 85.872C283.651 86.0608 284.22 86.1686 284.809 86.179C293.475 86.3317 303.697 83.3163 308.53 77.362C314.09 70.5134 313.046 60.454 306.198 54.8938H306.198Z" fill="#F43F5E"/>
<path d="M283.252 87.3851C276.508 91.8351 276.902 89.1789 279.495 84.3342L280.105 83.5827L283.862 86.6335L283.252 87.3851Z" fill="#27272A"/>
<path d="M281.865 85.6383L276.029 92.6548L275.83 92.8923L255.834 117.492L254.906 118.634L254.61 118.992L254.232 118.685L254.513 118.346L255.456 117.185L275.454 92.5872L276.852 90.9074L281.492 85.3295L281.865 85.6383Z" fill="#27272A"/>
<path d="M254.651 119.025L254.272 118.717L254.513 118.346L255.449 117.179L275.276 92.4423L280.484 84.4449L280.889 84.709L276.852 90.9074L275.653 92.7489L255.749 117.423L255.457 117.787L254.906 118.634L254.651 119.025Z" fill="#27272A"/>
<path d="M282.941 86.4401L276.185 93.1806L255.988 117.617L254.754 119.109L254.411 118.83L255.457 117.787L255.753 117.426L275.807 92.874L276.029 92.6548L282.599 86.0971L282.941 86.4401Z" fill="#27272A"/>
<path d="M179.172 18.8286C170.422 23.1199 166.807 33.6932 171.098 42.4448C174.706 49.8046 185.856 56.2246 194.219 57.9761C194.97 58.1335 195.722 58.131 196.442 57.997L198.085 59.8449C198.426 60.2291 198.982 60.3383 199.443 60.1119L199.519 60.075C200 59.8389 200.253 59.2999 200.127 58.7785L199.538 56.3409C199.974 55.8942 200.346 55.3735 200.629 54.7878C204.8 46.1655 206.515 34.5133 202.784 26.9045C198.494 18.153 187.922 14.5372 179.172 18.8286H179.172Z" fill="#2563EB"/>
<path d="M201.117 56.9086C200.984 60.1852 199.988 61.9962 196.316 59.2632L195.845 58.3029L200.646 55.9483L201.117 56.9086Z" fill="#27272A"/>
<path d="M198.722 57.4904L203.053 66.5973L203.199 66.9069L199.882 100.241L200.598 101.701L200.819 102.165L200.337 102.401L200.127 101.962L199.4 100.478L202.719 67.1424L201.682 64.9614L198.24 57.7211L198.722 57.4904Z" fill="#27272A"/>
<path d="M200.872 102.139L200.387 102.376L200.127 101.962L199.39 100.483L202.491 67.2542L196.885 58.3229L197.338 58.0382L201.682 64.9614L202.973 67.0176L199.774 100.294L200.004 100.757L200.598 101.701L200.872 102.139Z" fill="#27272A"/>
<path d="M200.025 56.783L203.653 66.6844L200.079 100.145L201.004 102.074L200.565 102.289L200.004 100.757L199.779 100.292L203.17 66.9211L203.053 66.5973L199.523 56.9668L200.025 56.783Z" fill="#27272A"/>
<path d="M0 210.514C0 210.784 0.216256 211 0.485554 211H165.031C165.3 211 165.517 210.784 165.517 210.514C165.517 210.245 165.3 210.029 165.031 210.029H0.485554C0.216256 210.029 0 210.245 0 210.514Z" fill="#52525B"/>
<path d="M177.483 202.353C177.483 202.622 177.7 202.838 177.969 202.838H342.514C342.784 202.838 343 202.622 343 202.353C343 202.084 342.784 201.867 342.514 201.867H177.969C177.7 201.867 177.483 202.084 177.483 202.353Z" fill="#52525B"/>
<path d="M268.879 75.2472L268.665 91.9126L264.519 106.769L261.205 105.532L262.676 91.9151L262.483 73.4874L268.879 75.2472Z" fill="#A0616A"/>
<path d="M264.505 109.164C264.894 107.028 264.181 105.109 262.913 104.878C261.644 104.647 260.301 106.192 259.912 108.328C259.523 110.464 260.236 112.383 261.504 112.614C262.772 112.845 264.116 111.301 264.505 109.164Z" fill="#A0616A"/>
<path d="M263.848 55.4037C263.848 55.4037 270.95 55.5015 270.944 59.2749C270.938 63.0484 270.159 77.0922 270.159 77.0922L258.958 78.1556L263.848 55.4037Z" fill="#E6E6E6"/>
</svg>
